<svg width="1810" height="610" viewBox="0 0 1810 610" fill="none" xmlns="http://www.w3.org/2000/svg">
<path d="M477.45 281.5L665 393.5L665.5 609.5L477.78 503.5L477.45 281.5Z" fill="#EFFFFF"/>
<path d="M600.817 89L786.333 214.444L664.649 394.206L477.452 281.5L600.817 89Z" fill="white"/>
<path d="M783.101 212.501L966 331.5L949.168 358.241L765.174 240.106L783.101 212.501Z" fill="white"/>
<path d="M966 331.509L967 520.978L934 530V328L966 331.509Z" fill="white"/>
<path d="M772 450L837.5 426V557.654L772 580.5L772 450Z" fill="white"/>
<path d="M0.45455 582V0.181801H70.9091V288.818H77.7273L339.091 0.181801H431.136L186.818 262.682L431.136 582H345.909L143.636 311.545L70.9091 393.364V582H0.45455Z" fill="white"/>
<path d="M1293.77 226.455C1291 203.064 1279.76 184.906 1260.07 171.98C1240.37 159.054 1216.21 152.591 1187.59 152.591C1166.66 152.591 1148.35 155.976 1132.65 162.747C1117.11 169.518 1104.95 178.828 1096.18 190.677C1087.56 202.526 1083.26 215.991 1083.26 231.071C1083.26 243.689 1086.26 254.538 1092.26 263.617C1098.41 272.542 1106.26 280.006 1115.8 286.007C1125.34 291.855 1135.34 296.702 1145.81 300.549C1156.27 304.242 1165.89 307.243 1174.66 309.551L1222.67 322.477C1234.98 325.709 1248.68 330.171 1263.76 335.865C1278.99 341.559 1293.54 349.33 1307.39 359.178C1321.39 368.873 1332.93 381.337 1342.01 396.572C1351.09 411.806 1355.63 430.503 1355.63 452.662C1355.63 478.206 1348.93 501.289 1335.55 521.909C1322.31 542.529 1302.92 558.918 1277.38 571.075C1251.99 583.231 1221.13 589.31 1184.82 589.31C1150.96 589.31 1121.65 583.847 1096.87 572.921C1072.25 561.996 1052.86 546.761 1038.71 527.218C1024.7 507.675 1016.78 484.977 1014.93 459.125H1074.02C1075.56 476.975 1081.56 491.748 1092.03 503.443C1102.64 514.984 1116.03 523.602 1132.19 529.295C1148.5 534.835 1166.04 537.605 1184.82 537.605C1206.67 537.605 1226.29 534.066 1243.68 526.987C1261.07 519.755 1274.84 509.752 1285 496.98C1295.15 484.054 1300.23 468.973 1300.23 451.739C1300.23 436.043 1295.84 423.27 1287.07 413.422C1278.3 403.573 1266.76 395.571 1252.45 389.416C1238.14 383.261 1222.67 377.875 1206.05 373.259L1147.89 356.639C1110.95 346.021 1081.72 330.864 1060.17 311.167C1038.63 291.47 1027.86 265.695 1027.86 233.841C1027.86 207.373 1035.01 184.291 1049.32 164.594C1063.79 144.743 1083.18 129.355 1107.49 118.429C1131.96 107.349 1159.27 101.81 1189.43 101.81C1219.9 101.81 1246.99 107.272 1270.68 118.198C1294.38 128.97 1313.16 143.743 1327.01 162.516C1341.01 181.29 1348.4 202.603 1349.16 226.455H1293.77Z" fill="white"/>
<path d="M1604.67 592.788C1576.11 592.788 1550.01 587.24 1526.38 576.143C1502.75 564.841 1483.94 548.607 1469.97 527.442C1456 506.071 1449.01 480.179 1449.01 449.766C1449.01 426.339 1453.43 406.612 1462.26 390.584C1471.1 374.555 1483.64 361.404 1499.87 351.129C1516.1 340.855 1535.32 332.738 1557.51 326.778C1579.7 320.819 1604.16 316.196 1630.87 312.908C1657.38 309.62 1679.78 306.743 1698.07 304.277C1716.56 301.811 1730.64 297.907 1740.3 292.564C1749.95 287.221 1754.78 278.59 1754.78 266.672V255.575C1754.78 223.313 1745.12 197.935 1725.81 179.44C1706.7 160.741 1679.16 151.391 1643.2 151.391C1609.09 151.391 1581.24 158.891 1559.67 173.892C1538.3 188.893 1523.3 206.565 1514.66 226.909L1462.57 208.107C1473.26 182.214 1488.05 161.562 1506.96 146.151C1525.86 130.533 1547.03 119.334 1570.46 112.553C1593.88 105.566 1617.62 102.072 1641.66 102.072C1659.74 102.072 1678.54 104.436 1698.07 109.162C1717.79 113.888 1736.08 122.108 1752.93 133.821C1769.78 145.329 1783.45 161.46 1793.93 182.214C1804.41 202.764 1809.65 228.861 1809.65 260.507V582H1754.78V507.098H1751.39C1744.82 521.071 1735.06 534.634 1722.11 547.786C1709.16 560.937 1692.93 571.725 1673.41 580.151C1653.89 588.576 1630.97 592.788 1604.67 592.788ZM1612.07 542.545C1641.25 542.545 1666.52 536.072 1687.89 523.126C1709.27 510.18 1725.71 493.022 1737.21 471.651C1748.93 450.074 1754.78 426.339 1754.78 400.447V332.018C1750.67 335.923 1743.79 339.416 1734.13 342.499C1724.68 345.581 1713.68 348.355 1701.15 350.821C1688.82 353.081 1676.49 355.034 1664.16 356.678C1651.83 358.321 1640.73 359.76 1630.87 360.993C1604.16 364.281 1581.35 369.418 1562.44 376.405C1543.54 383.392 1529.05 393.05 1518.98 405.379C1508.91 417.503 1503.88 433.121 1503.88 452.232C1503.88 481 1514.15 503.296 1534.7 519.119C1555.25 534.737 1581.04 542.545 1612.07 542.545Z" fill="white"/>
</svg>
